<svg width="24" height="25" viewBox="0 0 24 25" fill="none" xmlns="http://www.w3.org/2000/svg">
<path opacity="0.4" d="M7 17H12" stroke="white" stroke-width="1.5" stroke-miterlimit="10" stroke-linecap="round" stroke-linejoin="round"/>
<path opacity="0.4" d="M7 13H15" stroke="white" stroke-width="1.5" stroke-miterlimit="10" stroke-linecap="round" stroke-linejoin="round"/>
<path d="M10 3H16C19.33 3.18 21 4.41 21 8.99V17" stroke="white" stroke-width="1.5" stroke-miterlimit="10" stroke-linecap="round" stroke-linejoin="round"/>
<path d="M6.34104 4.4487V4.52418H6.86643C6.92166 4.52418 6.96643 4.56895 6.96643 4.62418V4.86626C6.96643 4.92149 6.92166 4.96626 6.86643 4.96626H6.30869C6.26916 5.20708 6.19368 5.39936 6.08226 5.54313C5.97443 5.68331 5.81988 5.78574 5.61861 5.85044C5.41733 5.91154 5.15675 5.94209 4.83687 5.94209V6.28174C4.83687 6.47942 4.8782 6.63577 4.96087 6.75078C5.04713 6.86579 5.1909 6.9233 5.39217 6.9233C5.72791 6.9233 5.90991 6.74998 5.93819 6.40332C5.94267 6.34828 5.98686 6.3033 6.04208 6.3033H6.40717C6.46279 6.3033 6.50805 6.34873 6.50458 6.40423C6.48497 6.71769 6.38732 6.959 6.21165 7.12817C6.02116 7.31147 5.7444 7.40313 5.38139 7.40313C5.01838 7.40313 4.73983 7.30249 4.54574 7.10121C4.35525 6.89994 4.26 6.6178 4.26 6.25478V5.61618C4.26 5.56095 4.30484 5.51621 4.36006 5.51594C4.7083 5.51425 4.96787 5.50355 5.13878 5.48383C5.32568 5.45867 5.46406 5.40835 5.55391 5.33287C5.64736 5.25739 5.70846 5.13519 5.73722 4.96626H4.13357C4.07834 4.96626 4.03357 4.92149 4.03357 4.86626V4.62418C4.03357 4.56895 4.07834 4.52418 4.13357 4.52418H5.76417V4.4487V4.04435H4.13357C4.07834 4.04435 4.03357 3.99958 4.03357 3.94435V3.69688C4.03357 3.64165 4.07834 3.59688 4.13357 3.59688H6.86643C6.92166 3.59688 6.96643 3.64165 6.96643 3.69688V3.94435C6.96643 3.99958 6.92166 4.04435 6.86643 4.04435H6.34104V4.4487Z" fill="white"/>
<path d="M3 10.01V16.98C3 20.99 4 23 9 23H12C12.17 23 14.84 23 15 23" stroke="white" stroke-width="1.5" stroke-miterlimit="10" stroke-linecap="round" stroke-linejoin="round"/>
<path d="M21 17L15 23V20C15 18 16 17 18 17H21Z" stroke="white" stroke-width="1.5" stroke-linecap="round" stroke-linejoin="round"/>
<path d="M3.82 1.5H7.18C8.63143 1.5 9.5 2.36857 9.5 3.82V7.18C9.5 8.63143 8.63143 9.5 7.18 9.5H3.82C2.36857 9.5 1.5 8.63143 1.5 7.18V3.82C1.5 2.36857 2.36857 1.5 3.82 1.5Z" stroke="#95A2A6" stroke-width="1.5"/>
</svg>
