<svg width="24" height="24" viewBox="0 0 24 24" fill="none" xmlns="http://www.w3.org/2000/svg">
<path opacity="0.4" d="M23 15.97C23 19.84 19.87 22.97 16 22.97L17.05 21.22" stroke="white" stroke-width="1.5" stroke-linecap="round" stroke-linejoin="round"/>
<path opacity="0.4" d="M1 7.96997C1 4.09997 4.13 0.969971 8 0.969971L6.95 2.71997" stroke="white" stroke-width="1.5" stroke-linecap="round" stroke-linejoin="round"/>
<path d="M21.5 8.66998C21.5 12.08 18.74 14.84 15.33 14.84H14.84C14.61 11.81 12.19 9.38997 9.16003 9.15997V8.66998C9.16003 5.25998 11.92 2.5 15.33 2.5C18.74 2.5 21.5 5.25998 21.5 8.66998Z" stroke="#95A2A6" stroke-width="1.5" stroke-miterlimit="10" stroke-linecap="round" stroke-linejoin="round"/>
<path d="M14.85 15.33C14.85 18.74 12.09 21.5 8.68001 21.5C5.27001 21.5 2.51001 18.74 2.51001 15.33C2.51001 11.92 5.27001 9.15997 8.68001 9.15997C8.84001 9.15997 8.99001 9.16999 9.16001 9.17999C12.19 9.40999 14.61 11.83 14.84 14.86C14.84 15.01 14.85 15.16 14.85 15.33Z" stroke="white" stroke-width="1.5" stroke-miterlimit="10" stroke-linecap="round" stroke-linejoin="round"/>
<path d="M10.2931 13.6338V13.7786H11.3303C11.42 13.7786 11.4926 13.8512 11.4926 13.9409V14.4642C11.4926 14.5538 11.42 14.6265 11.3303 14.6265H10.2311C10.1552 15.0884 10.0105 15.4572 9.79678 15.7329C9.58997 16.0018 9.29354 16.1983 8.90749 16.3223C8.52144 16.4395 8.02165 16.4981 7.40811 16.4981V17.1496C7.40811 17.5287 7.48739 17.8286 7.64594 18.0492C7.81139 18.2698 8.08714 18.3801 8.47319 18.3801C9.12657 18.3801 9.47639 18.0379 9.52264 17.3533C9.52868 17.2639 9.60058 17.191 9.69021 17.191H10.4498C10.54 17.191 10.6134 17.2648 10.6085 17.3549C10.5753 17.9705 10.3874 18.4433 10.045 18.7731C9.67958 19.1246 9.14877 19.3004 8.45251 19.3004C7.75624 19.3004 7.22198 19.1074 6.84972 18.7214C6.48436 18.3353 6.30167 17.7942 6.30167 17.0979V15.8435C6.30167 15.7539 6.37446 15.6813 6.46408 15.6809C7.14687 15.6781 7.65457 15.6576 7.98718 15.6192C8.34565 15.5709 8.61106 15.4744 8.7834 15.3297C8.96264 15.1849 9.07983 14.9505 9.13498 14.6265H6.02966C5.94003 14.6265 5.86737 14.5538 5.86737 14.4642V13.9409C5.86737 13.8512 5.94003 13.7786 6.02965 13.7786H9.18669V13.6338V12.8583H6.02966C5.94003 12.8583 5.86737 12.7856 5.86737 12.696V12.1623C5.86737 12.0727 5.94003 12 6.02965 12H11.3303C11.42 12 11.4926 12.0727 11.4926 12.1623V12.696C11.4926 12.7856 11.42 12.8583 11.3303 12.8583H10.2931V13.6338Z" fill="white"/>
</svg>
