<svg width="176" height="139" viewBox="0 0 176 139" fill="none" xmlns="http://www.w3.org/2000/svg">
<path d="M114.417 48.7766H101.831V41.1955H131V48.7766H124.326C123.975 51.5199 123.381 54.201 122.56 56.7868H127.987V64.511H119.284C116.905 68.9099 113.797 72.8564 110.071 76.1358C109.361 76.7611 108.633 77.3579 107.889 77.9257L127.645 95L112.444 95L97.944 83.4413C92.9037 85.3295 87.5178 86.1253 82.0992 85.7215C71.9822 84.9677 62.5126 80.0887 55.6197 72.0786C48.7269 64.0685 44.9293 53.5298 45.0008 42.6097C45.0722 31.6896 49.0072 21.2096 56.0042 13.3048C63.0012 5.40006 72.5336 0.665214 82.6595 0.064931C92.7855 -0.535352 102.743 3.04409 110.503 10.074C118.264 17.104 123.174 27.5606 124.358 38.4062H114.657C113.763 30.2238 110.059 23.4413 104.204 18.1377C98.3492 12.834 90.8369 10.1335 83.1975 10.5864C75.558 11.0393 68.3664 14.6114 63.0875 20.5751C57.8087 26.5388 54.84 34.4453 54.7861 42.6839C54.7322 50.9225 57.5972 58.8733 62.7975 64.9165C67.9977 70.9597 75.142 74.6406 82.7747 75.2093C90.4074 75.778 97.9544 73.1918 103.878 67.9774C105.089 66.9111 106.214 65.7513 107.246 64.511H104.433V56.7868H112.014C113.128 54.2566 113.94 51.5656 114.417 48.7766Z" fill="#00A897"/>
<path d="M168.996 118.455C171.114 118.455 172.811 119.129 174.086 120.479C175.362 121.804 175.999 123.611 175.999 125.9V136.997H172.859V126.081C172.859 124.611 172.462 123.479 171.667 122.684C170.873 121.864 169.778 121.455 168.382 121.455C166.818 121.455 165.554 121.949 164.592 122.937C163.629 123.9 163.148 125.394 163.148 127.419V136.997H160.007V111.696H163.148V121.527C164.423 119.479 166.373 118.455 168.996 118.455Z" fill="#00A897"/>
<path d="M146.359 123.804C146.359 124.503 146.708 125.069 147.406 125.503C148.104 125.913 148.946 126.25 149.933 126.515C150.92 126.756 151.906 127.045 152.893 127.382C153.88 127.696 154.722 128.25 155.42 129.045C156.118 129.816 156.467 130.816 156.467 132.045C156.467 133.684 155.829 134.997 154.554 135.985C153.302 136.973 151.69 137.467 149.716 137.467C147.959 137.467 146.455 137.081 145.204 136.31C143.952 135.539 143.062 134.515 142.532 133.238L145.24 131.684C145.529 132.551 146.07 133.238 146.864 133.744C147.659 134.25 148.609 134.503 149.716 134.503C150.751 134.503 151.606 134.31 152.279 133.925C152.953 133.515 153.29 132.888 153.29 132.045C153.29 131.346 152.941 130.792 152.243 130.382C151.545 129.949 150.703 129.611 149.716 129.37C148.729 129.105 147.743 128.804 146.756 128.467C145.769 128.129 144.927 127.575 144.229 126.804C143.531 126.033 143.182 125.045 143.182 123.84C143.182 122.274 143.784 120.985 144.987 119.973C146.214 118.961 147.743 118.455 149.572 118.455C151.04 118.455 152.34 118.792 153.471 119.467C154.626 120.117 155.492 121.033 156.07 122.214L153.435 123.696C152.785 122.154 151.497 121.382 149.572 121.382C148.681 121.382 147.923 121.599 147.298 122.033C146.672 122.443 146.359 123.033 146.359 123.804Z" fill="#00A897"/>
<path d="M135.787 118.925H138.927V136.997H135.787V133.888C134.222 136.274 131.948 137.467 128.964 137.467C126.436 137.467 124.282 136.551 122.502 134.72C120.721 132.864 119.83 130.611 119.83 127.961C119.83 125.31 120.721 123.069 122.502 121.238C124.282 119.382 126.436 118.455 128.964 118.455C131.948 118.455 134.222 119.647 135.787 122.033V118.925ZM129.361 134.431C131.19 134.431 132.718 133.816 133.945 132.587C135.173 131.334 135.787 129.792 135.787 127.961C135.787 126.129 135.173 124.599 133.945 123.37C132.718 122.117 131.19 121.491 129.361 121.491C127.556 121.491 126.039 122.117 124.812 123.37C123.585 124.599 122.971 126.129 122.971 127.961C122.971 129.792 123.585 131.334 124.812 132.587C126.039 133.816 127.556 134.431 129.361 134.431Z" fill="#00A897"/>
<path d="M106.531 137.467C102.705 137.467 99.5397 136.202 97.0367 133.672C94.5578 131.141 93.3184 128.033 93.3184 124.346C93.3184 120.66 94.5578 117.551 97.0367 115.021C99.5397 112.491 102.705 111.226 106.531 111.226C108.842 111.226 110.96 111.78 112.885 112.888C114.834 113.997 116.351 115.491 117.434 117.37L114.509 119.069C113.787 117.672 112.704 116.563 111.26 115.744C109.84 114.901 108.264 114.479 106.531 114.479C103.619 114.479 101.236 115.419 99.3833 117.298C97.5542 119.178 96.6396 121.527 96.6396 124.346C96.6396 127.141 97.5542 129.479 99.3833 131.358C101.236 133.238 103.619 134.178 106.531 134.178C108.264 134.178 109.84 133.768 111.26 132.949C112.704 132.105 113.787 130.997 114.509 129.623L117.434 131.286C116.375 133.166 114.87 134.672 112.921 135.804C110.972 136.913 108.842 137.467 106.531 137.467Z" fill="#00A897"/>
<path d="M69.5722 111.696C73.0138 111.696 75.8658 112.925 78.1281 115.382C80.4145 117.816 81.5576 120.804 81.5576 124.346C81.5576 127.888 80.4145 130.888 78.1281 133.346C75.8658 135.78 73.0138 136.997 69.5722 136.997H59.7168V111.696H69.5722ZM69.5722 133.816C72.1474 133.816 74.2533 132.913 75.8898 131.105C77.5264 129.298 78.3447 127.045 78.3447 124.346C78.3447 121.647 77.5264 119.394 75.8898 117.587C74.2533 115.78 72.1474 114.876 69.5722 114.876H63.0742V133.816H69.5722Z" fill="#00A897"/>
<path d="M50.9385 111.696H54.2958V136.997H50.9385V111.696Z" fill="#00A897"/>
<path d="M42.6916 118.925H45.8324V136.997H42.6916V134.394C41.4161 136.443 39.4667 137.467 36.8434 137.467C34.7255 137.467 33.0287 136.804 31.7532 135.479C30.4776 134.129 29.8398 132.31 29.8398 130.021V118.925H32.9806V129.84C32.9806 131.31 33.3777 132.455 34.1719 133.274C34.9661 134.069 36.0612 134.467 37.4571 134.467C39.0214 134.467 40.2849 133.985 41.2476 133.021C42.2103 132.033 42.6916 130.527 42.6916 128.503V118.925Z" fill="#00A897"/>
<path d="M26.1729 124.346C26.1729 127.816 24.9816 130.816 22.599 133.346L25.3787 136.129L23.0683 138.226L20.2163 135.334C18.0262 136.756 15.6436 137.467 13.0684 137.467C9.45835 137.467 6.37777 136.19 3.82666 133.635C1.27555 131.081 0 127.985 0 124.346C0 120.708 1.27555 117.611 3.82666 115.057C6.37777 112.503 9.45835 111.226 13.0684 111.226C16.6785 111.226 19.759 112.503 22.3102 115.057C24.8853 117.611 26.1729 120.708 26.1729 124.346ZM13.0684 134.178C14.8012 134.178 16.3897 133.768 17.8337 132.949L12.7796 127.852L15.09 125.792L20.2885 130.997C21.9732 129.166 22.8156 126.949 22.8156 124.346C22.8156 121.575 21.8649 119.238 19.9636 117.334C18.0864 115.431 15.788 114.479 13.0684 114.479C10.3488 114.479 8.03839 115.431 6.1371 117.334C4.25987 119.238 3.32125 121.575 3.32125 124.346C3.32125 127.093 4.25987 129.419 6.1371 131.322C8.03839 133.226 10.3488 134.178 13.0684 134.178Z" fill="#00A897"/>
</svg>
