<svg width="40" height="40" viewBox="0 0 40 40" fill="none" xmlns="http://www.w3.org/2000/svg">
<path d="M35.2381 0H4.7619C2.13198 0 0 2.18398 0 4.87805V35.122C0 37.816 2.13198 40 4.7619 40H35.2381C37.868 40 40 37.816 40 35.122V4.87805C40 2.18398 37.868 0 35.2381 0Z" fill="#00A991"/>
<path d="M27.3779 20.3424H23.877V18.3155H31.9898V20.3424H30.1339C30.0362 21.0752 29.871 21.7914 29.6431 22.4823H31.1516V24.5475H28.7324C28.0704 25.7241 27.2057 26.7798 26.1691 27.6569C25.9717 27.824 25.7693 27.9834 25.5625 28.1351L31.0559 32.699H26.828L22.7967 29.6099C21.3946 30.1149 19.8963 30.3278 18.389 30.2198C15.5751 30.0182 12.9413 28.7138 11.0241 26.5722C9.10699 24.4305 8.05079 21.6129 8.07065 18.6932C8.09052 15.7736 9.18499 12.9715 11.1311 10.858C13.0772 8.74463 15.7285 7.4787 18.5449 7.3182C21.3612 7.15771 24.1308 8.11473 26.2893 9.99424C28.4477 11.8739 29.8135 14.6696 30.1428 17.5694H27.4445C27.196 15.3817 26.1657 13.5682 24.5372 12.1502C22.9087 10.7322 20.8193 10.0101 18.6945 10.1313C16.5697 10.2524 14.5695 11.2074 13.1012 12.8019C11.633 14.3964 10.8073 16.5103 10.7923 18.7131C10.7773 20.9158 11.5741 23.0416 13.0205 24.6573C14.4669 26.273 16.454 27.2572 18.5769 27.4092C20.6998 27.5613 22.7989 26.8698 24.4465 25.4756C24.7839 25.1901 25.0972 24.8796 25.3844 24.5475H24.6004V22.4823H26.71C27.0196 21.8063 27.2452 21.0874 27.3779 20.3424Z" fill="white"/>
</svg>
